<mxfile host="app.diagrams.net" modified="2020-09-19T00:44:11.631Z" agent="5.0 (Macintosh; Intel Mac OS X 10_15_6) AppleWebKit/537.36 (KHTML, like Gecko) Chrome/85.0.4183.102 Safari/537.36" etag="ayVqosaLvHM17xPVt8Zd" version="13.7.3" type="github">
  <diagram name="Page-1" id="e7e014a7-5840-1c2e-5031-d8a46d1fe8dd">
    <mxGraphModel dx="4715" dy="4681" grid="1" gridSize="10" guides="1" tooltips="1" connect="1" arrows="1" fold="1" page="1" pageScale="1" pageWidth="1169" pageHeight="826" background="#ffffff" math="0" shadow="0">
      <root>
        <mxCell id="0" />
        <mxCell id="1" parent="0" />
        <mxCell id="iJJR_izDyd5dn2i7o-jN-41" value="Componente Produto N2" style="shape=umlFrame;whiteSpace=wrap;html=1;fontSize=15;fontColor=#ffffff;width=400;height=40;fontStyle=1;fillColor=#647687;strokeColor=#314354;" vertex="1" parent="1">
          <mxGeometry x="-1340" y="-2910" width="1190" height="620" as="geometry" />
        </mxCell>
        <mxCell id="iJJR_izDyd5dn2i7o-jN-59" value="&lt;p style=&quot;margin: 0px ; margin-top: 4px ; text-align: center&quot;&gt;&lt;i&gt;&amp;lt;&amp;lt;component&amp;gt;&amp;gt;&lt;/i&gt;&lt;br&gt;&lt;b&gt;Produto&lt;/b&gt;&lt;/p&gt;&lt;hr size=&quot;1&quot;&gt;&lt;p style=&quot;margin: 0px ; margin-left: 4px&quot;&gt;&lt;/p&gt;&lt;p style=&quot;margin: 0px ; margin-left: 4px&quot;&gt;&lt;br&gt;&lt;/p&gt;" style="verticalAlign=top;align=left;overflow=fill;fontSize=12;fontFamily=Helvetica;html=1;" vertex="1" parent="1">
          <mxGeometry x="-1160" y="-2798" width="900" height="368" as="geometry" />
        </mxCell>
        <mxCell id="iJJR_izDyd5dn2i7o-jN-60" value="«component»&lt;br&gt;ValidaPreenchimento&lt;br&gt;DaInterface" style="html=1;dropTarget=0;" vertex="1" parent="1">
          <mxGeometry x="-1080" y="-2729" width="130" height="70" as="geometry" />
        </mxCell>
        <mxCell id="iJJR_izDyd5dn2i7o-jN-61" value="«component»&lt;br&gt;&lt;b&gt;PopulaDados&lt;br&gt;Produto&lt;br&gt;&lt;/b&gt;" style="html=1;dropTarget=0;" vertex="1" parent="1">
          <mxGeometry x="-1080" y="-2553.75" width="130" height="70" as="geometry" />
        </mxCell>
        <mxCell id="iJJR_izDyd5dn2i7o-jN-62" value="«component»&lt;br style=&quot;font-size: 14px&quot;&gt;&lt;b&gt;VerificaDisponibilidade&lt;br&gt;Produto&lt;/b&gt;" style="html=1;dropTarget=0;fontSize=14;" vertex="1" parent="1">
          <mxGeometry x="-790" y="-2721" width="170" height="110" as="geometry" />
        </mxCell>
        <mxCell id="iJJR_izDyd5dn2i7o-jN-63" value="«component»&lt;br&gt;&lt;b&gt;Lista&lt;br&gt;Fornecedores&lt;br&gt;&lt;/b&gt;" style="html=1;dropTarget=0;" vertex="1" parent="1">
          <mxGeometry x="-780" y="-2553.75" width="160" height="70" as="geometry" />
        </mxCell>
        <mxCell id="iJJR_izDyd5dn2i7o-jN-172" value="" style="rounded=0;orthogonalLoop=1;jettySize=auto;html=1;endArrow=none;endFill=0;fontSize=9;fontColor=#000000;exitX=1;exitY=0.5;exitDx=0;exitDy=0;" edge="1" parent="1" source="iJJR_izDyd5dn2i7o-jN-60" target="iJJR_izDyd5dn2i7o-jN-174">
          <mxGeometry relative="1" as="geometry">
            <mxPoint x="-890" y="-2696" as="sourcePoint" />
          </mxGeometry>
        </mxCell>
        <mxCell id="iJJR_izDyd5dn2i7o-jN-173" value="" style="rounded=0;orthogonalLoop=1;jettySize=auto;html=1;endArrow=halfCircle;endFill=0;entryX=0.5;entryY=0.5;entryDx=0;entryDy=0;endSize=6;strokeWidth=1;fontSize=9;fontColor=#000000;exitX=0;exitY=0.25;exitDx=0;exitDy=0;" edge="1" parent="1" source="iJJR_izDyd5dn2i7o-jN-62" target="iJJR_izDyd5dn2i7o-jN-174">
          <mxGeometry relative="1" as="geometry">
            <mxPoint x="-850" y="-2696" as="sourcePoint" />
          </mxGeometry>
        </mxCell>
        <mxCell id="iJJR_izDyd5dn2i7o-jN-174" value="" style="ellipse;whiteSpace=wrap;html=1;fontFamily=Helvetica;fontSize=12;fontColor=#000000;align=center;strokeColor=#000000;fillColor=#ffffff;points=[];aspect=fixed;resizable=0;" vertex="1" parent="1">
          <mxGeometry x="-875" y="-2699" width="10" height="10" as="geometry" />
        </mxCell>
        <mxCell id="iJJR_izDyd5dn2i7o-jN-175" value="IProduto" style="text;html=1;strokeColor=none;fillColor=none;align=center;verticalAlign=middle;whiteSpace=wrap;rounded=0;fontSize=9;fontColor=#000000;" vertex="1" parent="1">
          <mxGeometry x="-905" y="-2729" width="70" height="20" as="geometry" />
        </mxCell>
        <mxCell id="iJJR_izDyd5dn2i7o-jN-179" value="" style="rounded=0;whiteSpace=wrap;html=1;" vertex="1" parent="1">
          <mxGeometry x="-1169" y="-2685" width="20" height="20" as="geometry" />
        </mxCell>
        <mxCell id="iJJR_izDyd5dn2i7o-jN-180" value="" style="group;rotation=-180;" vertex="1" connectable="0" parent="1">
          <mxGeometry x="-1219" y="-2690" width="50" height="30" as="geometry" />
        </mxCell>
        <mxCell id="iJJR_izDyd5dn2i7o-jN-181" value="" style="endArrow=none;html=1;" edge="1" parent="iJJR_izDyd5dn2i7o-jN-180">
          <mxGeometry width="50" height="50" relative="1" as="geometry">
            <mxPoint x="13" y="15" as="sourcePoint" />
            <mxPoint y="30" as="targetPoint" />
          </mxGeometry>
        </mxCell>
        <mxCell id="iJJR_izDyd5dn2i7o-jN-182" value="" style="endArrow=none;html=1;" edge="1" parent="iJJR_izDyd5dn2i7o-jN-180">
          <mxGeometry width="50" height="50" relative="1" as="geometry">
            <mxPoint x="13" y="15" as="sourcePoint" />
            <mxPoint as="targetPoint" />
          </mxGeometry>
        </mxCell>
        <mxCell id="iJJR_izDyd5dn2i7o-jN-183" value="" style="endArrow=none;html=1;" edge="1" parent="iJJR_izDyd5dn2i7o-jN-180">
          <mxGeometry width="50" height="50" relative="1" as="geometry">
            <mxPoint x="50" y="15" as="sourcePoint" />
            <mxPoint x="13" y="15" as="targetPoint" />
          </mxGeometry>
        </mxCell>
        <mxCell id="iJJR_izDyd5dn2i7o-jN-184" value="" style="endArrow=blockThin;dashed=1;html=1;fontSize=9;fontColor=#000000;endFill=1;" edge="1" parent="1">
          <mxGeometry width="50" height="50" relative="1" as="geometry">
            <mxPoint x="-1149" y="-2676" as="sourcePoint" />
            <mxPoint x="-1080" y="-2676" as="targetPoint" />
          </mxGeometry>
        </mxCell>
        <mxCell id="iJJR_izDyd5dn2i7o-jN-186" value="IProduto" style="text;html=1;strokeColor=none;fillColor=none;align=center;verticalAlign=middle;whiteSpace=wrap;rounded=0;fontSize=9;" vertex="1" parent="1">
          <mxGeometry x="-1230" y="-2725" width="50" height="40" as="geometry" />
        </mxCell>
        <mxCell id="iJJR_izDyd5dn2i7o-jN-187" value="" style="rounded=0;whiteSpace=wrap;html=1;" vertex="1" parent="1">
          <mxGeometry x="-1169" y="-2528.25" width="20" height="20" as="geometry" />
        </mxCell>
        <mxCell id="iJJR_izDyd5dn2i7o-jN-188" value="IProduto" style="text;html=1;strokeColor=none;fillColor=none;align=center;verticalAlign=middle;whiteSpace=wrap;rounded=0;fontSize=9;" vertex="1" parent="1">
          <mxGeometry x="-1230" y="-2553.75" width="50" height="24.5" as="geometry" />
        </mxCell>
        <mxCell id="iJJR_izDyd5dn2i7o-jN-189" value="" style="endArrow=blockThin;dashed=1;html=1;fontSize=9;fontColor=#000000;exitX=0;exitY=0.5;exitDx=0;exitDy=0;endFill=1;entryX=1;entryY=0.5;entryDx=0;entryDy=0;" edge="1" parent="1" source="iJJR_izDyd5dn2i7o-jN-61" target="iJJR_izDyd5dn2i7o-jN-187">
          <mxGeometry width="50" height="50" relative="1" as="geometry">
            <mxPoint x="-1140" y="-2442.5" as="sourcePoint" />
            <mxPoint x="-1110" y="-2540" as="targetPoint" />
          </mxGeometry>
        </mxCell>
        <mxCell id="iJJR_izDyd5dn2i7o-jN-196" value="" style="endArrow=diamondThin;endFill=0;endSize=24;html=1;fontSize=9;fontColor=#000000;exitX=0;exitY=0.5;exitDx=0;exitDy=0;" edge="1" parent="1" source="iJJR_izDyd5dn2i7o-jN-187">
          <mxGeometry width="160" relative="1" as="geometry">
            <mxPoint x="-1420" y="-2434.25" as="sourcePoint" />
            <mxPoint x="-1230" y="-2517.75" as="targetPoint" />
          </mxGeometry>
        </mxCell>
        <mxCell id="iJJR_izDyd5dn2i7o-jN-209" value="" style="rounded=0;orthogonalLoop=1;jettySize=auto;html=1;endArrow=none;endFill=0;fontSize=9;fontColor=#000000;exitX=1;exitY=0.5;exitDx=0;exitDy=0;" edge="1" parent="1" source="iJJR_izDyd5dn2i7o-jN-61" target="iJJR_izDyd5dn2i7o-jN-211">
          <mxGeometry relative="1" as="geometry">
            <mxPoint x="-1035" y="-2510" as="sourcePoint" />
            <Array as="points">
              <mxPoint x="-930" y="-2519" />
            </Array>
          </mxGeometry>
        </mxCell>
        <mxCell id="iJJR_izDyd5dn2i7o-jN-210" value="" style="rounded=0;orthogonalLoop=1;jettySize=auto;html=1;endArrow=halfCircle;endFill=0;entryX=0.5;entryY=0.5;entryDx=0;entryDy=0;endSize=6;strokeWidth=1;fontSize=9;fontColor=#000000;exitX=0;exitY=0.5;exitDx=0;exitDy=0;" edge="1" parent="1" source="iJJR_izDyd5dn2i7o-jN-63" target="iJJR_izDyd5dn2i7o-jN-211">
          <mxGeometry relative="1" as="geometry">
            <mxPoint x="-815" y="-2638.5" as="sourcePoint" />
          </mxGeometry>
        </mxCell>
        <mxCell id="iJJR_izDyd5dn2i7o-jN-211" value="" style="ellipse;whiteSpace=wrap;html=1;fontFamily=Helvetica;fontSize=12;fontColor=#000000;align=center;strokeColor=#000000;fillColor=#ffffff;points=[];aspect=fixed;resizable=0;" vertex="1" parent="1">
          <mxGeometry x="-860" y="-2523.25" width="10" height="10" as="geometry" />
        </mxCell>
        <mxCell id="iJJR_izDyd5dn2i7o-jN-212" value="Coleta informações do proprietário do cartão de crédito" style="text;html=1;strokeColor=none;fillColor=none;align=center;verticalAlign=middle;whiteSpace=wrap;rounded=0;fontSize=9;fontColor=#000000;" vertex="1" parent="1">
          <mxGeometry x="-1070" y="-2634" width="135" height="20" as="geometry" />
        </mxCell>
        <mxCell id="iJJR_izDyd5dn2i7o-jN-216" value="IdUsuario" style="text;html=1;strokeColor=none;fillColor=none;align=center;verticalAlign=middle;whiteSpace=wrap;rounded=0;fontSize=9;fontColor=#000000;" vertex="1" parent="1">
          <mxGeometry x="-1120" y="-2838" width="80" height="35" as="geometry" />
        </mxCell>
        <mxCell id="iJJR_izDyd5dn2i7o-jN-218" value="DadosProduto" style="text;html=1;strokeColor=none;fillColor=none;align=center;verticalAlign=middle;whiteSpace=wrap;rounded=0;fontSize=9;fontColor=#000000;" vertex="1" parent="1">
          <mxGeometry x="-1017" y="-2843" width="95.5" height="45" as="geometry" />
        </mxCell>
        <mxCell id="iJJR_izDyd5dn2i7o-jN-234" value="" style="rounded=0;whiteSpace=wrap;html=1;" vertex="1" parent="1">
          <mxGeometry x="-1060" y="-2811" width="20" height="20" as="geometry" />
        </mxCell>
        <mxCell id="iJJR_izDyd5dn2i7o-jN-235" value="" style="rounded=0;whiteSpace=wrap;html=1;" vertex="1" parent="1">
          <mxGeometry x="-1017" y="-2811" width="20" height="20" as="geometry" />
        </mxCell>
        <mxCell id="iJJR_izDyd5dn2i7o-jN-237" value="«component»&lt;br style=&quot;font-size: 14px&quot;&gt;&lt;b&gt;DataSetCompoment&lt;/b&gt;" style="html=1;dropTarget=0;fontSize=14;" vertex="1" parent="1">
          <mxGeometry x="-480" y="-2722" width="170" height="111" as="geometry" />
        </mxCell>
        <mxCell id="iJJR_izDyd5dn2i7o-jN-239" value="" style="rounded=0;orthogonalLoop=1;jettySize=auto;html=1;endArrow=none;endFill=0;fontSize=9;fontColor=#000000;entryX=1;entryY=0.25;entryDx=0;entryDy=0;" edge="1" parent="1" target="iJJR_izDyd5dn2i7o-jN-62">
          <mxGeometry relative="1" as="geometry">
            <mxPoint x="-560" y="-2693" as="sourcePoint" />
            <mxPoint x="-695" y="-2551" as="targetPoint" />
          </mxGeometry>
        </mxCell>
        <mxCell id="iJJR_izDyd5dn2i7o-jN-240" value="" style="ellipse;whiteSpace=wrap;html=1;fontFamily=Helvetica;fontSize=12;fontColor=#000000;align=center;strokeColor=#000000;fillColor=#ffffff;points=[];aspect=fixed;resizable=0;" vertex="1" parent="1">
          <mxGeometry x="-560" y="-2699" width="10" height="10" as="geometry" />
        </mxCell>
        <mxCell id="iJJR_izDyd5dn2i7o-jN-241" value="" style="rounded=0;orthogonalLoop=1;jettySize=auto;html=1;endArrow=halfCircle;endFill=0;endSize=6;strokeWidth=1;fontSize=9;fontColor=#000000;exitX=0;exitY=0.25;exitDx=0;exitDy=0;" edge="1" parent="1" source="iJJR_izDyd5dn2i7o-jN-237">
          <mxGeometry relative="1" as="geometry">
            <mxPoint x="-695" y="-2601" as="sourcePoint" />
            <mxPoint x="-555" y="-2694" as="targetPoint" />
          </mxGeometry>
        </mxCell>
        <mxCell id="iJJR_izDyd5dn2i7o-jN-243" value="" style="rounded=0;orthogonalLoop=1;jettySize=auto;html=1;endArrow=halfCircle;endFill=0;endSize=6;strokeWidth=1;fontSize=9;fontColor=#000000;" edge="1" parent="1">
          <mxGeometry relative="1" as="geometry">
            <mxPoint x="-619" y="-2639" as="sourcePoint" />
            <mxPoint x="-559" y="-2639" as="targetPoint" />
          </mxGeometry>
        </mxCell>
        <mxCell id="iJJR_izDyd5dn2i7o-jN-244" value="" style="rounded=0;orthogonalLoop=1;jettySize=auto;html=1;endArrow=none;endFill=0;fontSize=9;fontColor=#000000;exitX=0;exitY=0.75;exitDx=0;exitDy=0;entryX=1.012;entryY=0.471;entryDx=0;entryDy=0;entryPerimeter=0;" edge="1" parent="1" source="iJJR_izDyd5dn2i7o-jN-237" target="iJJR_izDyd5dn2i7o-jN-245">
          <mxGeometry relative="1" as="geometry">
            <mxPoint x="-695" y="-2500" as="sourcePoint" />
            <mxPoint x="-540" y="-2639" as="targetPoint" />
          </mxGeometry>
        </mxCell>
        <mxCell id="iJJR_izDyd5dn2i7o-jN-245" value="" style="ellipse;whiteSpace=wrap;html=1;fontFamily=Helvetica;fontSize=12;fontColor=#000000;align=center;strokeColor=#000000;fillColor=#ffffff;points=[];aspect=fixed;resizable=0;" vertex="1" parent="1">
          <mxGeometry x="-564" y="-2644" width="10" height="10" as="geometry" />
        </mxCell>
        <mxCell id="iJJR_izDyd5dn2i7o-jN-248" value="" style="rounded=0;orthogonalLoop=1;jettySize=auto;html=1;endArrow=none;endFill=0;fontSize=9;fontColor=#000000;entryX=1;entryY=0.25;entryDx=0;entryDy=0;exitX=-0.017;exitY=0.499;exitDx=0;exitDy=0;exitPerimeter=0;" edge="1" parent="1" source="iJJR_izDyd5dn2i7o-jN-250" target="iJJR_izDyd5dn2i7o-jN-63">
          <mxGeometry relative="1" as="geometry">
            <mxPoint x="-560" y="-2542" as="sourcePoint" />
            <mxPoint x="-610" y="-2683.5" as="targetPoint" />
          </mxGeometry>
        </mxCell>
        <mxCell id="iJJR_izDyd5dn2i7o-jN-249" value="" style="rounded=0;orthogonalLoop=1;jettySize=auto;html=1;endArrow=halfCircle;endFill=0;endSize=6;strokeWidth=1;fontSize=9;fontColor=#000000;exitX=0.25;exitY=1;exitDx=0;exitDy=0;" edge="1" parent="1" source="iJJR_izDyd5dn2i7o-jN-237">
          <mxGeometry relative="1" as="geometry">
            <mxPoint x="-457.5" y="-2608" as="sourcePoint" />
            <mxPoint x="-520" y="-2537" as="targetPoint" />
            <Array as="points">
              <mxPoint x="-437" y="-2537" />
            </Array>
          </mxGeometry>
        </mxCell>
        <mxCell id="iJJR_izDyd5dn2i7o-jN-250" value="" style="ellipse;whiteSpace=wrap;html=1;fontFamily=Helvetica;fontSize=12;fontColor=#000000;align=center;strokeColor=#000000;fillColor=#ffffff;points=[];aspect=fixed;resizable=0;" vertex="1" parent="1">
          <mxGeometry x="-527" y="-2542" width="10" height="10" as="geometry" />
        </mxCell>
        <mxCell id="iJJR_izDyd5dn2i7o-jN-252" value="" style="rounded=0;orthogonalLoop=1;jettySize=auto;html=1;endArrow=none;endFill=0;fontSize=9;fontColor=#000000;exitX=0.75;exitY=1;exitDx=0;exitDy=0;entryX=1.02;entryY=0.51;entryDx=0;entryDy=0;entryPerimeter=0;" edge="1" parent="1" target="iJJR_izDyd5dn2i7o-jN-253" source="iJJR_izDyd5dn2i7o-jN-237">
          <mxGeometry relative="1" as="geometry">
            <mxPoint x="-470" y="-2628.75" as="sourcePoint" />
            <mxPoint x="-520" y="-2490" as="targetPoint" />
            <Array as="points">
              <mxPoint x="-352" y="-2507" />
            </Array>
          </mxGeometry>
        </mxCell>
        <mxCell id="iJJR_izDyd5dn2i7o-jN-253" value="" style="ellipse;whiteSpace=wrap;html=1;fontFamily=Helvetica;fontSize=12;fontColor=#000000;align=center;strokeColor=#000000;fillColor=#ffffff;points=[];aspect=fixed;resizable=0;" vertex="1" parent="1">
          <mxGeometry x="-525" y="-2513.25" width="10" height="10" as="geometry" />
        </mxCell>
        <mxCell id="iJJR_izDyd5dn2i7o-jN-254" value="" style="rounded=0;orthogonalLoop=1;jettySize=auto;html=1;endArrow=halfCircle;endFill=0;endSize=6;strokeWidth=1;fontSize=9;fontColor=#000000;exitX=0.997;exitY=0.639;exitDx=0;exitDy=0;exitPerimeter=0;" edge="1" parent="1" source="iJJR_izDyd5dn2i7o-jN-63">
          <mxGeometry relative="1" as="geometry">
            <mxPoint x="-620" y="-2501.25" as="sourcePoint" />
            <mxPoint x="-520" y="-2508" as="targetPoint" />
            <Array as="points" />
          </mxGeometry>
        </mxCell>
      </root>
    </mxGraphModel>
  </diagram>
</mxfile>
